<!-- PLATSHÅLLARE: byt ut den här filen mot föreningens riktiga Swish-QR-kod. -->
<svg xmlns="http://www.w3.org/2000/svg" viewBox="0 0 200 200" width="200" height="200" role="img" aria-label="Swish QR-kod (platshållare)">
  <rect width="200" height="200" fill="#ffffff"/>
  <g fill="#101014">
    <rect x="16" y="16" width="44" height="44"/>
    <rect x="140" y="16" width="44" height="44"/>
    <rect x="16" y="140" width="44" height="44"/>
    <rect x="76" y="16" width="12" height="12"/>
    <rect x="100" y="28" width="12" height="12"/>
    <rect x="76" y="52" width="12" height="12"/>
    <rect x="112" y="76" width="12" height="12"/>
    <rect x="88" y="88" width="12" height="12"/>
    <rect x="64" y="112" width="12" height="12"/>
    <rect x="140" y="100" width="12" height="12"/>
    <rect x="164" y="124" width="12" height="12"/>
    <rect x="88" y="148" width="12" height="12"/>
    <rect x="124" y="160" width="12" height="12"/>
    <rect x="152" y="172" width="12" height="12"/>
  </g>
  <g fill="#ffffff">
    <rect x="28" y="28" width="20" height="20"/>
    <rect x="152" y="28" width="20" height="20"/>
    <rect x="28" y="152" width="20" height="20"/>
  </g>
  <rect x="60" y="86" width="80" height="28" rx="6" fill="#006eb7"/>
  <text x="100" y="105" text-anchor="middle" font-family="system-ui, sans-serif" font-size="12" font-weight="700" fill="#ffffff">SWISH-QR</text>
</svg>
